<?xml version="1.0" encoding="utf-8"?>
<!-- Generator: Adobe Illustrator 23.0.2, SVG Export Plug-In . SVG Version: 6.00 Build 0)  -->
<svg version="1.1" id="Layer_1" xmlns="http://www.w3.org/2000/svg" xmlns:xlink="http://www.w3.org/1999/xlink" x="0px" y="0px"
	 viewBox="0 0 82 90" style="enable-background:new 0 0 82 90;" xml:space="preserve">
<style type="text/css">
	.st0{fill:url(#SVGID_1_);}
	.st1{fill:#FFFFFF;}
</style>
<linearGradient id="SVGID_1_" gradientUnits="userSpaceOnUse" x1="43.637" y1="17.3613" x2="43.637" y2="77.2617">
	<stop  offset="0" style="stop-color:#F27A5E"/>
	<stop  offset="1" style="stop-color:#F25050"/>
</linearGradient>
<path class="st0" d="M67.5,39c0,12.6-9.5,21.7-22.2,21.7h-9v16.5H19.8V17.4h25.5C58,17.4,67.5,26.4,67.5,39z"/>
<g>
	<path d="M49.8,50.5c-1.7,0-3.1-0.1-4.4-0.2c-2.1-0.2-4.2-0.5-6.3-1.2c-1-0.3-2.1-0.7-3-1.3c-0.7-0.4-1.3-0.8-1.9-1.3
		c-1.1-0.7-2.1-1.5-3-2.4c-0.5-0.5-0.9-1-1.4-1.6c-0.7-0.9-1.4-1.9-2.1-2.9c-0.3-0.4-0.6-0.8-0.9-1.2c-0.1-0.1-0.2-0.3-0.4-0.4
		c-0.2-0.2-0.2-0.3-0.1-0.6c0-0.1,0-0.3,0-0.5c0-0.2-0.1-0.4-0.2-0.6c-0.1-0.3-0.3-0.4-0.6-0.4c-0.2,0-0.5,0-0.7,0
		c-0.3,0-0.5,0-0.8-0.1c-0.1,0-0.2,0-0.2-0.1c-0.2-0.1-0.2-0.3-0.1-0.4c0.1-0.1,0.2-0.2,0.3-0.2c0.4-0.1,0.8-0.3,1.2-0.5
		c0,0,0.1,0,0.1,0c0.6-0.2,0.9-0.6,1-1.2c0.1-0.2,0.1-0.5,0.2-0.7c0.1-0.1,0.1-0.3,0.2-0.4c0.1-0.2,0.3-0.2,0.4,0
		c0.1,0.1,0.2,0.2,0.2,0.4c0,0.2,0.2,0.4,0.3,0.6c0.2,0.2,0.5,0.4,0.8,0.5c0.8,0.5,1.6,0.9,2.5,1.3c1.9,0.9,3.9,1.6,6,2.2
		c1.7,0.5,3.4,1.1,5.1,1.5c1.2,0.3,2.5,0.6,3.7,0.8c0.8,0.1,1.7,0.2,2.5,0.3c0.9,0.1,1.9,0.1,2.8,0.1c1.1,0,2.1-0.1,3.2-0.3
		c1.6-0.3,3.1-0.9,4.4-1.8c0.2-0.1,0.4-0.3,0.6-0.4c0.4-0.3,0.7-0.8,0.8-1.3c0.1-0.4,0.2-0.8,0.2-1.2c0-0.2,0.1-0.5,0.2-0.7
		c0-0.1,0.1-0.2,0.1-0.3c0.1-0.2,0.4-0.2,0.5,0c0.1,0.2,0.1,0.3,0.2,0.5c0.1,0.2,0.1,0.4,0.1,0.5c0.1,0.2,0.2,0.5,0.4,0.6
		c0.1,0.1,0.2,0.3,0.2,0.4c0.2,0.4,0.2,0.8,0.3,1.2c0.2,1.3,0.3,2.7,0.3,4.1c0,1,0,1.9-0.1,2.9c-0.1,1.2-0.5,2.3-1.1,3.4
		c-0.5,0.8-1.2,1.3-2,1.6c-0.7,0.3-1.4,0.5-2.2,0.6c-1.2,0.2-2.3,0.4-3.5,0.5c-0.6,0-1.2,0.1-1.9,0.1C51.2,50.4,50.3,50.4,49.8,50.5
		z"/>
	<path d="M51.9,33.7c0.2,0.1,0.3,0.2,0.5,0.3c0.8,0.5,1.6,1,2.2,1.7c0.2,0.2,0.4,0.4,0.6,0.5c0.2,0.2,0.4,0.3,0.6,0.4
		c0.1,0.1,0.2,0.1,0.4,0.1c0.1,0,0.3,0.1,0.4,0.1c0.4,0.1,0.7,0.4,1,0.6c0.1,0.1,0.2,0.1,0.2,0.3c-0.1,0-0.2,0-0.2-0.1
		c-0.2-0.1-0.3-0.1-0.4-0.2c-0.5-0.3-1.1-0.5-1.7-0.7c-0.1,0-0.2-0.1-0.3-0.1c-0.2,0-0.4,0-0.5,0.2c-0.1,0.1-0.1,0.2-0.2,0.2
		c-0.1,0.1-0.3,0.1-0.4,0c-0.2-0.2-0.3-0.2-0.5,0c-0.2,0.1-0.4,0.3-0.5,0.4c-0.3,0.2-0.5,0.5-0.7,0.7c-0.2,0.2-0.4,0.4-0.6,0.5
		c-0.3,0.3-0.6,0.5-1.1,0.6c-0.5,0-1,0-1.5-0.3c-0.2-0.1-0.3-0.2-0.4-0.4c-0.2-0.3,0-0.7,0.3-0.8c0.1,0,0.2,0,0.3,0.1
		c0.1,0,0.1,0.1,0.2,0.2c0.2,0.2,0.5,0.2,0.8,0.1c0.2-0.1,0.4-0.2,0.6-0.3c0.6-0.4,1-0.9,1.4-1.5c0.1-0.1,0.1-0.2,0.1-0.3
		c0.1-0.1,0.1-0.3,0-0.4c-0.1-0.3-0.2-0.5-0.5-0.7c-0.1-0.1-0.2-0.1-0.3-0.1c-0.1,0-0.1,0-0.2,0c-0.4-0.2-0.8-0.5-1.1-1"/>
	<path d="M50.2,32.2c0-0.2,0-0.3,0-0.5c0-0.2-0.1-0.4-0.3-0.6c-0.1-0.1-0.3-0.2-0.5-0.3c-0.2-0.1-0.3-0.2-0.5-0.3
		c-0.1-0.1-0.2-0.2-0.3-0.3c-0.2-0.2-0.1-0.3,0.1-0.4c0.1,0,0.1-0.1,0.2-0.1c0.2,0,0.4-0.1,0.5-0.1c0.7,0,1.2-0.2,1.7-0.6
		c0.3-0.2,0.5-0.4,0.8-0.6c0.6-0.4,1.2-0.6,1.9-0.7c0.9-0.1,1.8-0.2,2.7-0.1c0.5,0,1,0.1,1.4,0.4c0.3,0.2,0.6,0.4,0.9,0.7
		c0.2,0.3,0.2,0.5,0,0.7c-0.1,0.1-0.3,0.3-0.5,0.3c-0.5,0.1-0.9,0.2-1.4,0.2c-0.7,0.1-1.5,0.1-2.2,0.2c-0.7,0.1-1.4,0.2-2.1,0.4
		c-0.3,0.1-0.6,0.2-0.9,0.4c-0.3,0.1-0.4,0.4-0.4,0.7"/>
	<path d="M42.9,31.7c-0.4-0.2-0.7-0.3-1.1-0.5c-0.7-0.3-1.4-0.7-2.2-0.9c-1.1-0.3-2.2-0.5-3.4-0.4c-0.7,0-1.4,0.2-2.1,0.3
		c-0.3,0.1-0.7,0.1-1,0.1c-0.4,0-0.7-0.2-1-0.4c-0.2-0.2-0.2-0.4-0.1-0.7c0.1-0.2,0.3-0.5,0.4-0.6c0.7-0.7,1.5-1.3,2.4-1.6
		c1-0.3,2-0.4,3.1-0.5c0.5,0,1,0,1.4,0c0.6,0,1.2,0.1,1.8,0.4c1.1,0.4,2.1,1,3,1.8c0.2,0.1,0.3,0.3,0.5,0.5c0.1,0.1,0.2,0.3,0.2,0.4
		c0,0.4-0.1,0.8-0.4,1.1c-0.2,0.2-0.4,0.3-0.6,0.5C43.5,31.3,43.2,31.5,42.9,31.7z"/>
	<path d="M33.5,33.2c-1.2,0-2.3-0.3-3.4-0.7c-0.5-0.2-1-0.4-1.5-0.6c-0.2-0.1-0.4-0.2-0.6-0.3c-0.2-0.1-0.4-0.2-0.6-0.2
		c-0.8-0.1-1.6,0-2.4,0.2c-0.3,0.1-0.5,0.2-0.7,0.4c-0.6,0.6-1.1,1.3-1.3,2.2c-0.1,0.4-0.1,0.7,0,1.1c0.1,0.3,0.2,0.7,0.3,1
		c0.1,0.3,0.3,0.7,0.3,1.1c0,0,0,0.1,0,0.1c0,0.2-0.1,0.4-0.3,0.4c-0.2,0.1-0.3,0-0.5-0.1c-0.1-0.1-0.2-0.3-0.3-0.4
		c-0.6-1-0.8-2.2-0.6-3.3c0.3-1.3,0.9-2.3,2-3.1c0.5-0.3,1-0.5,1.6-0.6c0.9-0.1,1.8,0,2.7,0.1c0.3,0.1,0.6,0.2,0.9,0.3
		c1,0.5,2,0.9,3.1,1.2c0.3,0.1,0.6,0.1,0.9,0.2c0.3,0,0.7,0,1-0.1c0.7-0.2,1.4-0.5,2-0.9c0.2-0.1,0.4-0.3,0.6-0.5
		c0.1-0.1,0.3-0.3,0.5-0.3c0.2-0.1,0.4,0,0.6,0.1c0.1,0.1,0.1,0.2,0.1,0.4c-0.1,0.2-0.2,0.4-0.4,0.6c-0.4,0.4-0.8,0.7-1.3,1
		c-0.7,0.5-1.5,0.7-2.4,0.7C33.7,33.2,33.6,33.2,33.5,33.2z"/>
	<path d="M28.8,47.7c0.1,0,0.2,0.1,0.3,0.1c0.6,0.3,1.2,0.6,1.8,0.9c2,1.1,4,2,6.1,2.9c1.5,0.6,3,1.1,4.5,1.4c1.6,0.3,3.2,0.7,4.7,1
		c1.2,0.2,2.4,0.4,3.6,0.5c1.3,0.1,2.6,0.2,4,0.2c1.2,0,2.4,0.1,3.6,0.1c0.5,0,0.9,0,1.4-0.1c0.5,0,0.9-0.2,1.3-0.4
		c0.6-0.4,1.2-0.7,1.8-1.1c0.1-0.1,0.3-0.2,0.4-0.3c0.4-0.3,0.5-0.6,0.6-1.1c0-0.1,0-0.3,0-0.4c0,0,0-0.1,0-0.1c0,0.4,0.1,0.8,0,1.2
		c0,0.2-0.1,0.4-0.3,0.6c-0.1,0.1-0.3,0.3-0.5,0.4c-0.6,0.4-1.1,0.7-1.7,1c-0.6,0.4-1.3,0.5-2,0.6c-1.2,0.1-2.3,0-3.5,0
		c-0.6,0-1.2,0-1.8-0.1c-0.9,0-1.8-0.1-2.7-0.1c-1.1-0.1-2.2-0.2-3.3-0.4c-1-0.2-2-0.3-3-0.5c-1.2-0.2-2.4-0.5-3.6-0.8
		c-2.1-0.5-4.1-1.3-6.1-2.2c-1.6-0.8-3.3-1.6-4.8-2.5c-0.3-0.2-0.5-0.3-0.8-0.5C28.9,47.8,28.8,47.8,28.8,47.7z"/>
	<path d="M60.9,31.7c0.7,0,1.3,0,1.9,0.1"/>
	<path d="M59.7,33.6c0,0.1-0.1,0.2-0.1,0.3c-0.1,0.2-0.3,0.4-0.5,0.4c-0.2,0-0.4,0-0.6,0.1c-0.6,0-1.1-0.1-1.6-0.2
		c-0.3-0.1-0.5-0.2-0.7-0.4"/>
	<path d="M31.6,47.6c0.1,0,0.1,0,0.2,0c0.7,0.3,1.3,0.5,2,0.8c1.6,0.8,3.2,1.5,4.8,2.2c1.4,0.6,2.8,1.1,4.3,1.6
		c0.8,0.3,1.6,0.4,2.5,0.4c1.3,0.1,2.7,0.2,4,0.2c1.5,0.1,3.1,0.1,4.6,0.2c0.6,0,1.1,0,1.7,0c1.5-0.1,2.9-0.7,4.1-1.7
		c0.3-0.2,0.5-0.4,0.8-0.6c0.1,0,0.1-0.1,0.2-0.1c0,0.1-0.1,0.2-0.2,0.3c-0.4,0.5-0.8,0.9-1.3,1.2c-1,0.6-2,1-3.2,1.1
		c-1,0.1-2,0.1-3,0.1c-1.4,0-2.8-0.1-4.2-0.2c-1.2-0.1-2.4-0.1-3.6-0.2c-1.3-0.1-2.6-0.4-3.8-0.8c-3-1.1-6-2.3-8.8-3.8
		c-0.3-0.2-0.7-0.4-1-0.6C31.7,47.7,31.6,47.7,31.6,47.6C31.6,47.6,31.6,47.6,31.6,47.6z"/>
	<path d="M40.9,36.4c0-0.2,0-0.4,0-0.6c0-0.6,0.3-0.9,0.8-1.1c0.2-0.1,0.5-0.2,0.7-0.2c0.4-0.1,0.8-0.1,1.2,0.1
		c0.1,0,0.2,0.1,0.3,0.2c0.2,0.1,0.2,0.3,0.1,0.4c-0.1,0.1-0.2,0.2-0.4,0.3c-0.2,0-0.4,0.1-0.6,0.1c-0.2,0-0.5,0.1-0.7,0.2
		C42,35.7,41.9,36,42,36.4c0.1,0.3,0.2,0.5,0.4,0.7c0,0,0,0,0.1,0.1c0.4,0.3,0.3,0.7,0,1.1c-0.1,0.1-0.2,0.1-0.3,0.1
		c-0.3-0.1-0.6-0.3-0.9-0.6c-0.2-0.2-0.3-0.5-0.3-0.8C40.9,36.8,40.9,36.6,40.9,36.4C40.9,36.4,40.9,36.4,40.9,36.4z"/>
	<path d="M65.9,31.3c-0.1-0.1-0.3-0.2-0.4-0.3c-0.4-0.3-0.8-0.6-1.2-0.9c-0.3-0.3-0.7-0.5-1.1-0.5c-0.5,0-1,0-1.5,0c0,0,0,0,0,0
		c-0.5,0-1,0-1.4,0c-0.2,0-0.4,0-0.5-0.1c0,0-0.1,0-0.1-0.1c-0.1,0-0.1-0.1,0-0.2c0.1-0.1,0.2-0.1,0.3-0.1c0.1,0,0.2,0,0.4,0
		c0.6,0.1,1.1,0.1,1.7,0.2c0.4,0,0.8,0,1.2,0c0.6,0,1.1,0.2,1.5,0.6c0.3,0.2,0.6,0.5,0.8,0.7c0.2,0.1,0.3,0.2,0.5,0.3
		c0.1,0,0.1,0.1,0.2,0.1"/>
	<path d="M67,34.2c-0.1,0.5-0.2,1.1-0.3,1.6c-0.1,0.4-0.3,0.6-0.6,0.9c-0.3,0.2-0.5,0.4-0.8,0.5c-0.5,0.2-1,0.4-1.5,0.6
		c-0.1,0-0.2,0.1-0.3,0.1c-0.1,0-0.1,0-0.2,0c0-0.1,0-0.1,0.1-0.1c0.1,0,0.2-0.1,0.3-0.1c0.5-0.2,1-0.5,1.5-0.7
		c0.7-0.3,1.1-0.8,1.2-1.5c0.1-0.5,0.3-1.1,0.3-1.6"/>
	<path d="M23.7,39.4c-0.1,0-0.2,0-0.3-0.1c-0.6-0.2-1.2-0.4-1.7-0.7c-0.6-0.4-1-0.9-1.2-1.6c-0.1-0.7-0.2-1.4-0.2-2
		c0-0.7,0-1.4,0-2.2c0-0.6,0.2-1.1,0.5-1.6c0.3-0.5,0.7-0.9,1.2-1.3c0.3-0.2,0.6-0.3,0.9-0.4c0.8-0.1,1.6-0.1,2.4-0.1
		c0.3,0,0.6,0,1,0c0.1,0,0.2,0,0.3,0c0,0,0,0,0,0c-0.3,0-0.6,0.1-0.9,0.1c-0.9,0.1-1.9,0.2-2.8,0.3c-0.4,0.1-0.7,0.2-0.9,0.5
		c-0.4,0.4-0.7,0.8-1,1.3c-0.3,0.4-0.4,0.9-0.4,1.4c-0.1,1.2,0,2.3,0.2,3.5c0,0.2,0.1,0.4,0.1,0.6c0.1,0.5,0.4,0.9,0.9,1.2
		c0.2,0.2,0.5,0.3,0.8,0.5c0.3,0.2,0.7,0.4,1,0.5C23.5,39.2,23.6,39.2,23.7,39.4C23.7,39.3,23.7,39.3,23.7,39.4z"/>
	<path d="M45,36.2c0.5,0,1,0,1.4,0.2c0.2,0,0.3,0.1,0.5,0.2c0.1,0,0.1,0.1,0.2,0.1c0.2,0.2,0.1,0.4-0.1,0.5c-0.1,0-0.2,0.1-0.3,0.1
		c-0.3,0-0.6,0-0.9,0c-0.4,0-0.8,0-1.2,0.1c-0.2,0-0.3,0.1-0.4,0.2c-0.1,0.2-0.4,0.2-0.5,0c-0.1-0.1-0.1-0.2-0.2-0.3
		c-0.1-0.2-0.1-0.4,0-0.6c0-0.2,0.1-0.3,0.3-0.4c0.2,0,0.4-0.1,0.5-0.1c0.2,0,0.3,0,0.5,0C44.8,36.2,44.9,36.2,45,36.2z"/>
	<path d="M64.3,31.5c-0.2-0.1-0.3-0.2-0.5-0.3c-0.1-0.1-0.3-0.2-0.4-0.3c-0.1,0-0.1-0.1-0.2-0.2c0,0,0,0,0-0.1c0.1,0,0.1,0,0.2,0
		c0.5,0.1,1,0.3,1.4,0.6c0.1,0.1,0.2,0.2,0.2,0.3"/>
	<path d="M65.5,34.4c0,0.4-0.1,0.8-0.4,1.1c-0.2,0.2-0.4,0.4-0.7,0.6c-0.1,0.1-0.2,0.1-0.3,0.1c0,0-0.1,0-0.1,0c0,0,0-0.1,0-0.1
		c0-0.1,0.1-0.1,0.1-0.2c0.2-0.2,0.3-0.3,0.5-0.5c0.1-0.1,0.2-0.2,0.3-0.3c0.2-0.2,0.3-0.4,0.3-0.7"/>
	<path d="M40.6,34.9c0,0.3-0.2,0.6-0.5,0.6c-0.2,0.1-0.5,0.1-0.7,0.1c-0.7,0.1-1.4,0.1-2.1,0.2c-0.3,0-0.7,0.1-1,0.1
		c-0.1,0-0.1,0-0.2-0.1c0-0.1,0-0.2,0.1-0.2c0.2,0,0.3-0.1,0.5-0.1c0.4,0,0.9-0.1,1.3-0.1c0.5,0,1.1,0,1.6-0.1c0.1,0,0.2,0,0.3-0.1
		c0.3-0.1,0.4-0.3,0.3-0.6c0,0,0,0,0-0.1c0-0.1,0-0.1,0.1-0.2c0.1,0,0.1,0,0.2,0C40.6,34.5,40.6,34.7,40.6,34.9z"/>
	<path d="M30.7,29.8c-0.5,0.1-1.1,0-1.6-0.3c0,0-0.1,0-0.1-0.1c-0.1-0.1-0.1-0.2,0.1-0.3c0.2-0.1,0.4-0.1,0.6-0.1
		c0.4-0.1,0.8-0.1,1.3-0.2c0.1,0,0.1,0,0.2,0C31.1,28.9,31,29,31,29c-0.3,0.1-0.6,0.2-0.9,0.3c-0.1,0-0.2,0.1-0.3,0.1
		c0.1,0.1,0.3,0.1,0.4,0.2C30.4,29.7,30.6,29.7,30.7,29.8C30.7,29.7,30.7,29.8,30.7,29.8z"/>
	<path d="M50.8,28c0-0.2,0-0.4-0.1-0.5c0-0.5,0-1,0.1-1.4c0.1-0.2,0.1-0.5,0.3-0.7c0.1-0.1,0.2-0.2,0.3-0.2c0.1-0.1,0.2,0,0.2,0.1
		c0,0.1-0.1,0.2-0.1,0.3c-0.3,0.5-0.5,1.1-0.5,1.7C50.9,27.5,50.9,27.7,50.8,28C50.9,28,50.9,28,50.8,28z"/>
	<path d="M52.9,51.6c-0.3,0.1-4.7,0.1-5,0C48.1,51.6,51.8,51.6,52.9,51.6z"/>
	<path d="M30.6,30.6c-0.1-0.2-0.1-0.4,0.2-0.5c0.2,0,0.4,0,0.5,0C31.2,30.3,30.9,30.5,30.6,30.6z"/>
	<path class="st1" d="M45.1,47.3c0,0.4-0.1,0.8-0.1,1.2c0,0.1,0,0.2,0,0.2c-0.1,0.2-0.2,0.4-0.5,0.4c-0.3,0-0.6,0-1-0.1
		c-1.3-0.2-2.6-0.5-3.8-0.9c-0.2-0.1-0.4-0.1-0.5-0.2c-0.3-0.1-0.3-0.3-0.2-0.5c0.1-0.4,0.3-0.8,0.5-1.2c0.3-0.5,0.4-1,0.4-1.5
		c0-0.1,0-0.3,0-0.4c0-0.2,0.1-0.2,0.3-0.2c0.1,0,0.2,0.1,0.3,0.1c0.5,0.2,1,0.4,1.6,0.5c0.7,0.2,1.4,0.4,2.1,0.6
		c0.1,0,0.3,0.1,0.4,0.1c0.3,0.1,0.5,0.3,0.5,0.6c0,0.3,0,0.5,0,0.8C45.1,47,45.1,47.1,45.1,47.3C45.1,47.3,45.1,47.3,45.1,47.3z"/>
	<path class="st1" d="M38.7,44.2c0,0.3-0.1,0.6-0.2,0.9c-0.2,0.5-0.4,1.1-0.7,1.5c-0.1,0.1-0.1,0.2-0.2,0.3
		c-0.1,0.2-0.3,0.2-0.5,0.1c-0.1-0.1-0.3-0.1-0.4-0.2c-0.8-0.5-1.6-1-2.3-1.5c-0.4-0.2-0.7-0.5-1.1-0.8c-0.1-0.1-0.3-0.2-0.4-0.4
		c-0.2-0.2-0.2-0.3,0-0.5c0.3-0.4,0.4-0.9,0.5-1.4c0-0.1,0-0.2,0-0.4c0-0.2,0.1-0.2,0.3-0.2c0.2,0,0.4,0.1,0.5,0.2
		c0.7,0.3,1.3,0.6,2,0.9c0.5,0.2,1.1,0.4,1.7,0.6c0.1,0,0.2,0.1,0.3,0.1C38.6,43.6,38.7,43.9,38.7,44.2z"/>
	<path class="st1" d="M39.7,39.8c0,0.1,0,0.2-0.1,0.3c-0.1,0.4-0.2,0.8-0.3,1.3c0,0.1-0.1,0.2-0.1,0.3c-0.1,0.1-0.1,0.2-0.3,0.1
		c-0.4-0.2-0.9-0.3-1.3-0.5c-0.7-0.3-1.3-0.5-2-0.7c-0.1,0-0.2-0.1-0.4-0.1c-0.2,0-0.3-0.1-0.5-0.2c-0.7-0.5-1.2-1.1-1.6-1.9
		c-0.1-0.2-0.1-0.4-0.1-0.6c0,0,0-0.1,0-0.1c0.1-0.1,0.1-0.2,0.3-0.1c0.2,0.1,0.4,0.1,0.7,0.2c1.6,0.5,3.1,0.9,4.7,1.4
		c0.2,0.1,0.4,0.2,0.6,0.3C39.7,39.5,39.8,39.6,39.7,39.8z"/>
	<path class="st1" d="M45.3,43.1c-0.8,0-1.5-0.1-2.2-0.2c-0.7-0.1-1.4-0.3-2-0.5c-0.2-0.1-0.3-0.1-0.5-0.2c-0.2-0.1-0.2-0.2-0.2-0.4
		c0.1-0.4,0.2-0.8,0.3-1.2c0-0.2,0.1-0.3,0.2-0.4c0.1-0.2,0.1-0.2,0.3-0.2c0.3,0.1,0.7,0.1,1,0.2c0.9,0.2,1.8,0.4,2.8,0.6
		c0.2,0,0.4,0.1,0.6,0.2c0.3,0.1,0.4,0.3,0.4,0.6c0,0.4,0.1,0.8,0.1,1.2c0,0.3-0.1,0.4-0.4,0.4C45.6,43.1,45.4,43.1,45.3,43.1z"/>
	<path class="st1" d="M48.2,49.5c-0.5,0-1.1-0.1-1.6-0.1c-0.2,0-0.3-0.1-0.4-0.4c0-0.2-0.1-0.4-0.1-0.6c0-0.7,0-1.4,0.1-2.1
		c0-0.1,0-0.2,0.1-0.3c0.1-0.1,0.1-0.2,0.3-0.1c0.8,0.2,1.6,0.3,2.4,0.4c0.3,0,0.5,0,0.8,0.1c0.1,0,0.1,0,0.1,0
		c0.3,0.1,0.4,0.2,0.4,0.5c0,0.2,0,0.4-0.1,0.6c-0.1,0.5-0.2,1-0.3,1.5c0,0,0,0,0,0c-0.1,0.4-0.2,0.5-0.6,0.5c-0.3,0-0.6,0-0.9,0
		C48.3,49.5,48.3,49.4,48.2,49.5C48.2,49.5,48.2,49.5,48.2,49.5z"/>
	<path class="st1" d="M32.1,39.4c-0.1,0-0.1,0-0.2-0.1c-1.1-0.5-2.1-1-3.1-1.5c-1-0.5-1.4-1.4-1.6-2.4c0-0.1,0-0.2,0-0.3
		c0-0.2,0.2-0.3,0.3-0.2c0.1,0,0.3,0.1,0.4,0.1c0.4,0.1,0.7,0.3,1.1,0.5c0.8,0.4,1.5,0.8,2.3,1.2c0.1,0,0.2,0.1,0.3,0.2
		c0.4,0.2,0.6,0.6,0.6,1c0,0.4,0,0.8,0,1.3C32.2,39.1,32.2,39.3,32.1,39.4z"/>
	<path class="st1" d="M53.3,43.1c-0.2,0-0.5,0-0.7,0c-0.1,0-0.2,0-0.3,0c-0.2,0-0.3-0.1-0.3-0.3c-0.1-0.3-0.1-0.7-0.1-1
		c0-0.1,0.1-0.2,0.2-0.3c0.1,0,0.2-0.1,0.3-0.1c0.8-0.2,1.6-0.3,2.5-0.4c0.1,0,0.2,0,0.3,0c0.2,0,0.4,0.1,0.5,0.3
		c0,0.1,0.1,0.2,0.1,0.4c0.1,0.2,0.1,0.4,0.2,0.6c0.1,0.3,0,0.4-0.3,0.5c-0.3,0.1-0.5,0.1-0.8,0.2C54.4,43,53.8,43,53.3,43.1
		C53.3,43.1,53.3,43.1,53.3,43.1z"/>
	<path class="st1" d="M49.2,43.1c-0.4,0-0.8,0-1.3,0c-0.1,0-0.2,0-0.2,0c-0.3-0.1-0.4-0.2-0.4-0.4c0-0.4,0-0.8,0-1.1
		c0-0.3,0.2-0.4,0.4-0.4c0.3,0,0.6,0,0.8,0c0.6,0.1,1.2,0.1,1.8,0.2c0,0,0,0,0.1,0c0.1,0,0.2,0.1,0.3,0.2c0.1,0.3,0.1,0.7,0.2,1
		c0,0,0,0.1,0,0.1c0,0.3,0,0.4-0.3,0.4c-0.2,0-0.3,0-0.5,0C49.8,43.1,49.5,43.1,49.2,43.1C49.2,43.1,49.2,43.1,49.2,43.1z"/>
	<path class="st1" d="M52,49.5c-0.2,0-0.4,0-0.5,0c-0.2,0-0.3-0.1-0.3-0.3c0-0.2,0-0.3,0.1-0.5c0.1-0.5,0.2-0.9,0.3-1.4
		c0-0.1,0-0.1,0.1-0.2c0.1-0.3,0.3-0.4,0.5-0.4c0.3,0,0.6,0,0.9,0c0.3,0,0.6,0,0.9,0.1c0.4,0,0.4,0.2,0.3,0.5
		c-0.2,0.6-0.5,1.3-0.9,1.8c-0.1,0.2-0.3,0.3-0.5,0.4C52.4,49.4,52.2,49.4,52,49.5z"/>
	<path class="st1" d="M29.1,39.5c0.1,0,0.1,0,0.2,0.1c0.7,0.3,1.4,0.6,2,0.9c0.1,0.1,0.2,0.1,0.3,0.2c0.3,0.2,0.5,0.5,0.6,0.9
		c0.1,0.3,0.1,0.6,0.1,0.9c0,0.1,0,0.2-0.1,0.4c0,0.1-0.1,0.2-0.3,0.2c-0.1,0-0.2,0-0.2,0c-0.1-0.1-0.2-0.2-0.3-0.3
		c-0.7-0.7-1.2-1.5-1.8-2.4c-0.2-0.2-0.3-0.5-0.5-0.7C29.2,39.6,29.1,39.6,29.1,39.5C29.1,39.5,29.1,39.5,29.1,39.5z"/>
	<path class="st1" d="M58.9,40.9c0,0.4,0,0.8-0.2,1.1c-0.1,0.4-0.3,0.6-0.7,0.7c-0.2,0-0.4,0.1-0.6,0.1c-0.1,0-0.2,0-0.2-0.1
		c0-0.2-0.1-0.3-0.1-0.5c0-0.4-0.1-0.7-0.2-1.1c-0.1-0.4-0.1-0.5,0.3-0.7c0.4-0.2,0.7-0.4,1.1-0.5c0.2-0.1,0.3,0,0.4,0.2
		C58.9,40.3,58.9,40.6,58.9,40.9z"/>
	<path class="st1" d="M57.2,46.3c0,0.1,0,0.2-0.1,0.3c-0.1,0.3-0.3,0.6-0.4,0.8c-0.1,0.3-0.2,0.6-0.3,0.9c0,0.1,0,0.2,0,0.3
		c0,0.1,0,0.2-0.1,0.2C56.2,48.9,56,49,55.9,49c-0.3,0.1-0.6,0.1-0.9,0.1c-0.2,0-0.3-0.1-0.2-0.3c0.2-0.5,0.3-1,0.5-1.4
		c0.1-0.2,0.2-0.5,0.4-0.7c0.1-0.1,0.2-0.2,0.3-0.2c0.3-0.1,0.6-0.1,1-0.2C57,46.3,57.1,46.3,57.2,46.3z"/>
	<path class="st1" d="M59.6,47.7c0.1,0,0.2,0,0.2,0c0.1,0,0.1,0.1,0,0.1c0,0.1-0.1,0.1-0.2,0.2c-0.2,0.1-0.3,0.2-0.5,0.3
		c-0.4,0.1-0.8,0.2-1.2,0.3c-0.1,0-0.2,0-0.3,0c-0.1-0.1,0-0.2,0-0.3c0.3-0.7,0.6-1.3,1-1.9c0.1-0.1,0.2-0.3,0.3-0.4
		c0-0.1,0.1-0.1,0.2-0.1c0.2-0.1,0.2,0,0.2,0.2c0,0.1,0,0.2-0.1,0.3c-0.1,0.3-0.1,0.5-0.2,0.8c0,0.1,0,0.2,0,0.3
		c0,0.2,0.1,0.3,0.3,0.3C59.5,47.7,59.5,47.7,59.6,47.7C59.6,47.7,59.6,47.7,59.6,47.7z"/>
	<path class="st1" d="M60,38.7c0.1,0.1,0.1,0.1,0.2,0.2c0.1,0.1,0.2,0.3,0.2,0.4c0.2,0.5,0.4,1,0.5,1.5c0,0,0,0.1,0,0.1
		c0.1,0.3,0,0.5-0.3,0.7c-0.1,0-0.1,0.1-0.2,0.2c-0.2,0.1-0.3,0.1-0.4-0.1c0-0.1-0.1-0.3-0.1-0.4c-0.1-0.7-0.2-1.4-0.1-2.1
		C59.9,39,59.9,38.9,60,38.7z"/>
	<path class="st1" d="M61.5,44.9c0,0.1,0,0.2,0,0.2c-0.1,0.2-0.1,0.4-0.2,0.6c-0.2,0.5-0.4,1-0.6,1.5c0,0.1-0.1,0.2-0.2,0.2
		c-0.1,0-0.1-0.1-0.1-0.2c0-0.1,0-0.2,0.1-0.3c0.2-0.7,0.5-1.3,0.9-1.9C61.3,45.1,61.3,45,61.5,44.9C61.4,45,61.4,45,61.5,44.9z"/>
	<path class="st1" d="M61.5,38.5c-0.2-0.1-0.3-0.2-0.4-0.6c0-0.1-0.1-0.2,0-0.4C61.3,37.7,61.6,38.2,61.5,38.5z"/>
	<path class="st1" d="M56.6,28.9c-0.5,0.1-1,0.1-1.6,0C55.3,28.8,56.3,28.8,56.6,28.9z"/>
	<path class="st1" d="M42.8,30.2c-0.2-0.1-0.4-0.1-0.5-0.2c-0.4-0.2-0.8-0.4-1.3-0.6c-0.4-0.2-0.7-0.3-1.1-0.4c-0.1,0-0.3,0-0.4-0.1
		c-0.1,0-0.1,0-0.2,0c-0.1,0-0.2-0.1-0.2-0.2c0-0.1,0-0.1,0.1-0.2c0-0.2,0.1-0.5,0.1-0.7c0-0.2,0.1-0.2,0.3-0.2c0.1,0,0.2,0,0.2,0
		c1.2,0.3,2.3,0.8,3.2,1.6c0.1,0.1,0.2,0.2,0.2,0.3c0.1,0.2,0.1,0.3,0,0.5C43.2,30.1,43,30.2,42.8,30.2z"/>
	<path class="st1" d="M33.2,29.3c0.3-0.6,0.8-0.8,1.3-0.8c0,0,0,0,0.1,0c0,0,0.1,0,0.1,0.1c0,0,0,0.1-0.1,0.1c0,0-0.1,0.1-0.2,0.1
		C34.1,29.1,33.7,29.2,33.2,29.3z"/>
</g>
</svg>
