<?xml version="1.0" encoding="UTF-8" standalone="no"?><!DOCTYPE svg PUBLIC "-//W3C//DTD SVG 1.1//EN" "http://www.w3.org/Graphics/SVG/1.1/DTD/svg11.dtd"><svg width="100%" height="100%" viewBox="0 0 385 63" version="1.1" xmlns="http://www.w3.org/2000/svg" xmlns:xlink="http://www.w3.org/1999/xlink" xml:space="preserve" xmlns:serif="http://www.serif.com/" style="fill-rule:evenodd;clip-rule:evenodd;stroke-linejoin:round;stroke-miterlimit:1.41421;"><g><path d="M48.5,23c0,12.6 -9.5,21.7 -22.2,21.7l-9,0l0,16.5l-16.5,0l0,-59.8l25.5,0c12.7,0 22.2,9 22.2,21.6Z" style="fill:#fff;fill-rule:nonzero;"/><g><path d="M30.8,34.5c-1.7,0 -3.1,-0.1 -4.4,-0.2c-2.1,-0.2 -4.2,-0.5 -6.3,-1.2c-1,-0.3 -2.1,-0.7 -3,-1.3c-0.7,-0.4 -1.3,-0.8 -1.9,-1.3c-1.1,-0.7 -2.1,-1.5 -3,-2.4c-0.5,-0.5 -0.9,-1 -1.4,-1.6c-0.7,-0.9 -1.4,-1.9 -2.1,-2.9c-0.3,-0.4 -0.6,-0.8 -0.9,-1.2c-0.1,-0.1 -0.2,-0.3 -0.4,-0.4c-0.2,-0.2 -0.2,-0.3 -0.1,-0.6c0,-0.1 0,-0.3 0,-0.5c0,-0.2 -0.1,-0.4 -0.2,-0.6c-0.1,-0.3 -0.3,-0.4 -0.6,-0.4c-0.2,0 -0.5,0 -0.7,0c-0.3,0 -0.5,0 -0.8,-0.1c-0.1,0 -0.2,0 -0.2,-0.1c-0.2,-0.1 -0.2,-0.3 -0.1,-0.4c0.1,-0.1 0.2,-0.2 0.3,-0.2c0.4,-0.1 0.8,-0.3 1.2,-0.5l0.1,0c0.6,-0.2 0.9,-0.6 1,-1.2c0.1,-0.2 0.1,-0.5 0.2,-0.7c0.1,-0.1 0.1,-0.3 0.2,-0.4c0.1,-0.2 0.3,-0.2 0.4,0c0.1,0.1 0.2,0.2 0.2,0.4c0,0.2 0.2,0.4 0.3,0.6c0.2,0.2 0.5,0.4 0.8,0.5c0.8,0.5 1.6,0.9 2.5,1.3c1.9,0.9 3.9,1.6 6,2.2c1.7,0.5 3.4,1.1 5.1,1.5c1.2,0.3 2.5,0.6 3.7,0.8c0.8,0.1 1.7,0.2 2.5,0.3c0.9,0.1 1.9,0.1 2.8,0.1c1.1,0 2.1,-0.1 3.2,-0.3c1.6,-0.3 3.1,-0.9 4.4,-1.8c0.2,-0.1 0.4,-0.3 0.6,-0.4c0.4,-0.3 0.7,-0.8 0.8,-1.3c0.1,-0.4 0.2,-0.8 0.2,-1.2c0,-0.2 0.1,-0.5 0.2,-0.7c0,-0.1 0.1,-0.2 0.1,-0.3c0.1,-0.2 0.4,-0.2 0.5,0c0.1,0.2 0.1,0.3 0.2,0.5c0.1,0.2 0.1,0.4 0.1,0.5c0.1,0.2 0.2,0.5 0.4,0.6c0.1,0.1 0.2,0.3 0.2,0.4c0.2,0.4 0.2,0.8 0.3,1.2c0.2,1.3 0.3,2.7 0.3,4.1c0,1 0,1.9 -0.1,2.9c-0.1,1.2 -0.5,2.3 -1.1,3.4c-0.5,0.8 -1.2,1.3 -2,1.6c-0.7,0.3 -1.4,0.5 -2.2,0.6c-1.2,0.2 -2.3,0.4 -3.5,0.5c-0.6,0 -1.2,0.1 -1.9,0.1c-0.5,0 -1.4,0 -1.9,0.1Z" style="fill-rule:nonzero;"/><path d="M32.9,17.7c0.2,0.1 0.3,0.2 0.5,0.3c0.8,0.5 1.6,1 2.2,1.7c0.2,0.2 0.4,0.4 0.6,0.5c0.2,0.2 0.4,0.3 0.6,0.4c0.1,0.1 0.2,0.1 0.4,0.1c0.1,0 0.3,0.1 0.4,0.1c0.4,0.1 0.7,0.4 1,0.6c0.1,0.1 0.2,0.1 0.2,0.3c-0.1,0 -0.2,0 -0.2,-0.1c-0.2,-0.1 -0.3,-0.1 -0.4,-0.2c-0.5,-0.3 -1.1,-0.5 -1.7,-0.7c-0.1,0 -0.2,-0.1 -0.3,-0.1c-0.2,0 -0.4,0 -0.5,0.2c-0.1,0.1 -0.1,0.2 -0.2,0.2c-0.1,0.1 -0.3,0.1 -0.4,0c-0.2,-0.2 -0.3,-0.2 -0.5,0c-0.2,0.1 -0.4,0.3 -0.5,0.4c-0.3,0.2 -0.5,0.5 -0.7,0.7c-0.2,0.2 -0.4,0.4 -0.6,0.5c-0.3,0.3 -0.6,0.5 -1.1,0.6c-0.5,0 -1,0 -1.5,-0.3c-0.2,-0.1 -0.3,-0.2 -0.4,-0.4c-0.2,-0.3 0,-0.7 0.3,-0.8c0.1,0 0.2,0 0.3,0.1c0.1,0 0.1,0.1 0.2,0.2c0.2,0.2 0.5,0.2 0.8,0.1c0.2,-0.1 0.4,-0.2 0.6,-0.3c0.6,-0.4 1,-0.9 1.4,-1.5c0.1,-0.1 0.1,-0.2 0.1,-0.3c0.1,-0.1 0.1,-0.3 0,-0.4c-0.1,-0.3 -0.2,-0.5 -0.5,-0.7c-0.1,-0.1 -0.2,-0.1 -0.3,-0.1c-0.1,0 -0.1,0 -0.2,0c-0.4,-0.2 -0.8,-0.5 -1.1,-1" style="fill-rule:nonzero;"/><path d="M31.2,16.2c0,-0.2 0,-0.3 0,-0.5c0,-0.2 -0.1,-0.4 -0.3,-0.6c-0.1,-0.1 -0.3,-0.2 -0.5,-0.3c-0.2,-0.1 -0.3,-0.2 -0.5,-0.3c-0.1,-0.1 -0.2,-0.2 -0.3,-0.3c-0.2,-0.2 -0.1,-0.3 0.1,-0.4c0.1,0 0.1,-0.1 0.2,-0.1c0.2,0 0.4,-0.1 0.5,-0.1c0.7,0 1.2,-0.2 1.7,-0.6c0.3,-0.2 0.5,-0.4 0.8,-0.6c0.6,-0.4 1.2,-0.6 1.9,-0.7c0.9,-0.1 1.8,-0.2 2.7,-0.1c0.5,0 1,0.1 1.4,0.4c0.3,0.2 0.6,0.4 0.9,0.7c0.2,0.3 0.2,0.5 0,0.7c-0.1,0.1 -0.3,0.3 -0.5,0.3c-0.5,0.1 -0.9,0.2 -1.4,0.2c-0.7,0.1 -1.5,0.1 -2.2,0.2c-0.7,0.1 -1.4,0.2 -2.1,0.4c-0.3,0.1 -0.6,0.2 -0.9,0.4c-0.3,0.1 -0.4,0.4 -0.4,0.7" style="fill-rule:nonzero;"/><path d="M23.9,15.7c-0.4,-0.2 -0.7,-0.3 -1.1,-0.5c-0.7,-0.3 -1.4,-0.7 -2.2,-0.9c-1.1,-0.3 -2.2,-0.5 -3.4,-0.4c-0.7,0 -1.4,0.2 -2.1,0.3c-0.3,0.1 -0.7,0.1 -1,0.1c-0.4,0 -0.7,-0.2 -1,-0.4c-0.2,-0.2 -0.2,-0.4 -0.1,-0.7c0.1,-0.2 0.3,-0.5 0.4,-0.6c0.7,-0.7 1.5,-1.3 2.4,-1.6c1,-0.3 2,-0.4 3.1,-0.5c0.5,0 1,0 1.4,0c0.6,0 1.2,0.1 1.8,0.4c1.1,0.4 2.1,1 3,1.8c0.2,0.1 0.3,0.3 0.5,0.5c0.1,0.1 0.2,0.3 0.2,0.4c0,0.4 -0.1,0.8 -0.4,1.1c-0.2,0.2 -0.4,0.3 -0.6,0.5c-0.3,0.1 -0.6,0.3 -0.9,0.5Z" style="fill-rule:nonzero;"/><path d="M14.5,17.2c-1.2,0 -2.3,-0.3 -3.4,-0.7c-0.5,-0.2 -1,-0.4 -1.5,-0.6c-0.2,-0.1 -0.4,-0.2 -0.6,-0.3c-0.2,-0.1 -0.4,-0.2 -0.6,-0.2c-0.8,-0.1 -1.6,0 -2.4,0.2c-0.3,0.1 -0.5,0.2 -0.7,0.4c-0.6,0.6 -1.1,1.3 -1.3,2.2c-0.1,0.4 -0.1,0.7 0,1.1c0.1,0.3 0.2,0.7 0.3,1c0.1,0.3 0.3,0.7 0.3,1.1l0,0.1c0,0.2 -0.1,0.4 -0.3,0.4c-0.2,0.1 -0.3,0 -0.5,-0.1c-0.1,-0.1 -0.2,-0.3 -0.3,-0.4c-0.6,-1 -0.8,-2.2 -0.6,-3.3c0.3,-1.3 0.9,-2.3 2,-3.1c0.5,-0.3 1,-0.5 1.6,-0.6c0.9,-0.1 1.8,0 2.7,0.1c0.3,0.1 0.6,0.2 0.9,0.3c1,0.5 2,0.9 3.1,1.2c0.3,0.1 0.6,0.1 0.9,0.2c0.3,0 0.7,0 1,-0.1c0.7,-0.2 1.4,-0.5 2,-0.9c0.2,-0.1 0.4,-0.3 0.6,-0.5c0.1,-0.1 0.3,-0.3 0.5,-0.3c0.2,-0.1 0.4,0 0.6,0.1c0.1,0.1 0.1,0.2 0.1,0.4c-0.1,0.2 -0.2,0.4 -0.4,0.6c-0.4,0.4 -0.8,0.7 -1.3,1c-0.7,0.5 -1.5,0.7 -2.4,0.7c-0.1,0 -0.2,0 -0.3,0Z" style="fill-rule:nonzero;"/><path d="M9.8,31.7c0.1,0 0.2,0.1 0.3,0.1c0.6,0.3 1.2,0.6 1.8,0.9c2,1.1 4,2 6.1,2.9c1.5,0.6 3,1.1 4.5,1.4c1.6,0.3 3.2,0.7 4.7,1c1.2,0.2 2.4,0.4 3.6,0.5c1.3,0.1 2.6,0.2 4,0.2c1.2,0 2.4,0.1 3.6,0.1c0.5,0 0.9,0 1.4,-0.1c0.5,0 0.9,-0.2 1.3,-0.4c0.6,-0.4 1.2,-0.7 1.8,-1.1c0.1,-0.1 0.3,-0.2 0.4,-0.3c0.4,-0.3 0.5,-0.6 0.6,-1.1c0,-0.1 0,-0.3 0,-0.4l0,-0.1c0,0.4 0.1,0.8 0,1.2c0,0.2 -0.1,0.4 -0.3,0.6c-0.1,0.1 -0.3,0.3 -0.5,0.4c-0.6,0.4 -1.1,0.7 -1.7,1c-0.6,0.4 -1.3,0.5 -2,0.6c-1.2,0.1 -2.3,0 -3.5,0c-0.6,0 -1.2,0 -1.8,-0.1c-0.9,0 -1.8,-0.1 -2.7,-0.1c-1.1,-0.1 -2.2,-0.2 -3.3,-0.4c-1,-0.2 -2,-0.3 -3,-0.5c-1.2,-0.2 -2.4,-0.5 -3.6,-0.8c-2.1,-0.5 -4.1,-1.3 -6.1,-2.2c-1.6,-0.8 -3.3,-1.6 -4.8,-2.5c-0.3,-0.2 -0.5,-0.3 -0.8,-0.5c0.1,-0.2 0,-0.2 0,-0.3Z" style="fill-rule:nonzero;"/><path d="M41.9,15.7c0.7,0 1.3,0 1.9,0.1" style="fill-rule:nonzero;"/><path d="M40.7,17.6c0,0.1 -0.1,0.2 -0.1,0.3c-0.1,0.2 -0.3,0.4 -0.5,0.4c-0.2,0 -0.4,0 -0.6,0.1c-0.6,0 -1.1,-0.1 -1.6,-0.2c-0.3,-0.1 -0.5,-0.2 -0.7,-0.4" style="fill-rule:nonzero;"/><path d="M12.6,31.6c0.1,0 0.1,0 0.2,0c0.7,0.3 1.3,0.5 2,0.8c1.6,0.8 3.2,1.5 4.8,2.2c1.4,0.6 2.8,1.1 4.3,1.6c0.8,0.3 1.6,0.4 2.5,0.4c1.3,0.1 2.7,0.2 4,0.2c1.5,0.1 3.1,0.1 4.6,0.2c0.6,0 1.1,0 1.7,0c1.5,-0.1 2.9,-0.7 4.1,-1.7c0.3,-0.2 0.5,-0.4 0.8,-0.6c0.1,0 0.1,-0.1 0.2,-0.1c0,0.1 -0.1,0.2 -0.2,0.3c-0.4,0.5 -0.8,0.9 -1.3,1.2c-1,0.6 -2,1 -3.2,1.1c-1,0.1 -2,0.1 -3,0.1c-1.4,0 -2.8,-0.1 -4.2,-0.2c-1.2,-0.1 -2.4,-0.1 -3.6,-0.2c-1.3,-0.1 -2.6,-0.4 -3.8,-0.8c-3,-1.1 -6,-2.3 -8.8,-3.8c-0.3,-0.2 -0.7,-0.4 -1,-0.6c0,0 -0.1,0 -0.1,-0.1l0,0Z" style="fill-rule:nonzero;"/><path d="M21.9,20.4c0,-0.2 0,-0.4 0,-0.6c0,-0.6 0.3,-0.9 0.8,-1.1c0.2,-0.1 0.5,-0.2 0.7,-0.2c0.4,-0.1 0.8,-0.1 1.2,0.1c0.1,0 0.2,0.1 0.3,0.2c0.2,0.1 0.2,0.3 0.1,0.4c-0.1,0.1 -0.2,0.2 -0.4,0.3c-0.2,0 -0.4,0.1 -0.6,0.1c-0.2,0 -0.5,0.1 -0.7,0.2c-0.3,-0.1 -0.4,0.2 -0.3,0.6c0.1,0.3 0.2,0.5 0.4,0.7l0.1,0.1c0.4,0.3 0.3,0.7 0,1.1c-0.1,0.1 -0.2,0.1 -0.3,0.1c-0.3,-0.1 -0.6,-0.3 -0.9,-0.6c-0.2,-0.2 -0.3,-0.5 -0.3,-0.8c-0.1,-0.2 -0.1,-0.4 -0.1,-0.6l0,0Z" style="fill-rule:nonzero;"/><path d="M46.9,15.3c-0.1,-0.1 -0.3,-0.2 -0.4,-0.3c-0.4,-0.3 -0.8,-0.6 -1.2,-0.9c-0.3,-0.3 -0.7,-0.5 -1.1,-0.5l-2.9,0c-0.2,0 -0.4,0 -0.5,-0.1c0,0 -0.1,0 -0.1,-0.1c-0.1,0 -0.1,-0.1 0,-0.2c0.1,-0.1 0.2,-0.1 0.3,-0.1c0.1,0 0.2,0 0.4,0c0.6,0.1 1.1,0.1 1.7,0.2c0.4,0 0.8,0 1.2,0c0.6,0 1.1,0.2 1.5,0.6c0.3,0.2 0.6,0.5 0.8,0.7c0.2,0.1 0.3,0.2 0.5,0.3c0.1,0 0.1,0.1 0.2,0.1" style="fill-rule:nonzero;"/><path d="M48,18.2c-0.1,0.5 -0.2,1.1 -0.3,1.6c-0.1,0.4 -0.3,0.6 -0.6,0.9c-0.3,0.2 -0.5,0.4 -0.8,0.5c-0.5,0.2 -1,0.4 -1.5,0.6c-0.1,0 -0.2,0.1 -0.3,0.1c-0.1,0 -0.1,0 -0.2,0c0,-0.1 0,-0.1 0.1,-0.1c0.1,0 0.2,-0.1 0.3,-0.1c0.5,-0.2 1,-0.5 1.5,-0.7c0.7,-0.3 1.1,-0.8 1.2,-1.5c0.1,-0.5 0.3,-1.1 0.3,-1.6" style="fill-rule:nonzero;"/><path d="M4.7,23.4c-0.1,0 -0.2,0 -0.3,-0.1c-0.6,-0.2 -1.2,-0.4 -1.7,-0.7c-0.6,-0.4 -1,-0.9 -1.2,-1.6c-0.1,-0.7 -0.2,-1.4 -0.2,-2c0,-0.7 0,-1.4 0,-2.2c0,-0.6 0.2,-1.1 0.5,-1.6c0.3,-0.5 0.7,-0.9 1.2,-1.3c0.3,-0.2 0.6,-0.3 0.9,-0.4c0.8,-0.1 1.6,-0.1 2.4,-0.1l1.3,0c-0.3,0 -0.6,0.1 -0.9,0.1c-0.9,0.1 -1.9,0.2 -2.8,0.3c-0.4,0.1 -0.7,0.2 -0.9,0.5c-0.4,0.4 -0.7,0.8 -1,1.3c-0.3,0.4 -0.4,0.9 -0.4,1.4c-0.1,1.2 0,2.3 0.2,3.5c0,0.2 0.1,0.4 0.1,0.6c0.1,0.5 0.4,0.9 0.9,1.2c0.2,0.2 0.5,0.3 0.8,0.5c0.3,0.2 0.7,0.4 1,0.5c-0.1,-0.1 0,-0.1 0.1,0.1c0,-0.1 0,-0.1 0,0Z" style="fill-rule:nonzero;"/><path d="M26,20.2c0.5,0 1,0 1.4,0.2c0.2,0 0.3,0.1 0.5,0.2c0.1,0 0.1,0.1 0.2,0.1c0.2,0.2 0.1,0.4 -0.1,0.5c-0.1,0 -0.2,0.1 -0.3,0.1c-0.3,0 -0.6,0 -0.9,0c-0.4,0 -0.8,0 -1.2,0.1c-0.2,0 -0.3,0.1 -0.4,0.2c-0.1,0.2 -0.4,0.2 -0.5,0c-0.1,-0.1 -0.1,-0.2 -0.2,-0.3c-0.1,-0.2 -0.1,-0.4 0,-0.6c0,-0.2 0.1,-0.3 0.3,-0.4c0.2,0 0.4,-0.1 0.5,-0.1l0.7,0Z" style="fill-rule:nonzero;"/><path d="M45.3,15.5c-0.2,-0.1 -0.3,-0.2 -0.5,-0.3c-0.1,-0.1 -0.3,-0.2 -0.4,-0.3c-0.1,0 -0.1,-0.1 -0.2,-0.2l0,-0.1c0.1,0 0.1,0 0.2,0c0.5,0.1 1,0.3 1.4,0.6c0.1,0.1 0.2,0.2 0.2,0.3" style="fill-rule:nonzero;"/><path d="M46.5,18.4c0,0.4 -0.1,0.8 -0.4,1.1c-0.2,0.2 -0.4,0.4 -0.7,0.6c-0.1,0.1 -0.2,0.1 -0.3,0.1l-0.1,0l0,-0.1c0,-0.1 0.1,-0.1 0.1,-0.2l0.8,-0.8c0.2,-0.2 0.3,-0.4 0.3,-0.7" style="fill-rule:nonzero;"/><path d="M21.6,18.9c0,0.3 -0.2,0.6 -0.5,0.6c-0.2,0.1 -0.5,0.1 -0.7,0.1c-0.7,0.1 -1.4,0.1 -2.1,0.2c-0.3,0 -0.7,0.1 -1,0.1c-0.1,0 -0.1,0 -0.2,-0.1c0,-0.1 0,-0.2 0.1,-0.2c0.2,0 0.3,-0.1 0.5,-0.1c0.4,0 0.9,-0.1 1.3,-0.1c0.5,0 1.1,0 1.6,-0.1c0.1,0 0.2,0 0.3,-0.1c0.3,-0.1 0.4,-0.3 0.3,-0.6l0,-0.1c0,-0.1 0,-0.1 0.1,-0.2c0.1,0 0.1,0 0.2,0c0.1,0.2 0.1,0.4 0.1,0.6Z" style="fill-rule:nonzero;"/><path d="M11.7,13.8c-0.5,0.1 -1.1,0 -1.6,-0.3c0,0 -0.1,0 -0.1,-0.1c-0.1,-0.1 -0.1,-0.2 0.1,-0.3c0.2,-0.1 0.4,-0.1 0.6,-0.1c0.4,-0.1 0.8,-0.1 1.3,-0.2c0.1,0 0.1,0 0.2,0c-0.1,0.1 -0.2,0.2 -0.2,0.2c-0.3,0.1 -0.6,0.2 -0.9,0.3c-0.1,0 -0.2,0.1 -0.3,0.1c0.1,0.1 0.3,0.1 0.4,0.2c0.2,0.1 0.4,0.1 0.5,0.2c0,-0.1 0,0 0,0Z" style="fill-rule:nonzero;"/><path d="M31.8,12c0,-0.2 0,-0.4 -0.1,-0.5c0,-0.5 0,-1 0.1,-1.4c0.1,-0.2 0.1,-0.5 0.3,-0.7c0.1,-0.1 0.2,-0.2 0.3,-0.2c0.1,-0.1 0.2,0 0.2,0.1c0,0.1 -0.1,0.2 -0.1,0.3c-0.3,0.5 -0.5,1.1 -0.5,1.7c-0.1,0.2 -0.1,0.4 -0.2,0.7c0.1,0 0.1,0 0,0Z" style="fill-rule:nonzero;"/><path d="M33.9,35.6c-0.3,0.1 -4.7,0.1 -5,0c0.2,0 3.9,0 5,0Z" style="fill-rule:nonzero;"/><path d="M11.6,14.6c-0.1,-0.2 -0.1,-0.4 0.2,-0.5c0.2,0 0.4,0 0.5,0c-0.1,0.2 -0.4,0.4 -0.7,0.5Z" style="fill-rule:nonzero;"/><path d="M26.1,31.3c0,0.4 -0.1,0.8 -0.1,1.2c0,0.1 0,0.2 0,0.2c-0.1,0.2 -0.2,0.4 -0.5,0.4c-0.3,0 -0.6,0 -1,-0.1c-1.3,-0.2 -2.6,-0.5 -3.8,-0.9c-0.2,-0.1 -0.4,-0.1 -0.5,-0.2c-0.3,-0.1 -0.3,-0.3 -0.2,-0.5c0.1,-0.4 0.3,-0.8 0.5,-1.2c0.3,-0.5 0.4,-1 0.4,-1.5c0,-0.1 0,-0.3 0,-0.4c0,-0.2 0.1,-0.2 0.3,-0.2c0.1,0 0.2,0.1 0.3,0.1c0.5,0.2 1,0.4 1.6,0.5c0.7,0.2 1.4,0.4 2.1,0.6c0.1,0 0.3,0.1 0.4,0.1c0.3,0.1 0.5,0.3 0.5,0.6l0,1.3Z" style="fill:#fff;fill-rule:nonzero;"/><path d="M19.7,28.2c0,0.3 -0.1,0.6 -0.2,0.9c-0.2,0.5 -0.4,1.1 -0.7,1.5c-0.1,0.1 -0.1,0.2 -0.2,0.3c-0.1,0.2 -0.3,0.2 -0.5,0.1c-0.1,-0.1 -0.3,-0.1 -0.4,-0.2c-0.8,-0.5 -1.6,-1 -2.3,-1.5c-0.4,-0.2 -0.7,-0.5 -1.1,-0.8c-0.1,-0.1 -0.3,-0.2 -0.4,-0.4c-0.2,-0.2 -0.2,-0.3 0,-0.5c0.3,-0.4 0.4,-0.9 0.5,-1.4c0,-0.1 0,-0.2 0,-0.4c0,-0.2 0.1,-0.2 0.3,-0.2c0.2,0 0.4,0.1 0.5,0.2c0.7,0.3 1.3,0.6 2,0.9c0.5,0.2 1.1,0.4 1.7,0.6c0.1,0 0.2,0.1 0.3,0.1c0.4,0.2 0.5,0.5 0.5,0.8Z" style="fill:#fff;fill-rule:nonzero;"/><path d="M20.7,23.8c0,0.1 0,0.2 -0.1,0.3c-0.1,0.4 -0.2,0.8 -0.3,1.3c0,0.1 -0.1,0.2 -0.1,0.3c-0.1,0.1 -0.1,0.2 -0.3,0.1c-0.4,-0.2 -0.9,-0.3 -1.3,-0.5c-0.7,-0.3 -1.3,-0.5 -2,-0.7c-0.1,0 -0.2,-0.1 -0.4,-0.1c-0.2,0 -0.3,-0.1 -0.5,-0.2c-0.7,-0.5 -1.2,-1.1 -1.6,-1.9c-0.1,-0.2 -0.1,-0.4 -0.1,-0.6l0,-0.1c0.1,-0.1 0.1,-0.2 0.3,-0.1c0.2,0.1 0.4,0.1 0.7,0.2c1.6,0.5 3.1,0.9 4.7,1.4c0.2,0.1 0.4,0.2 0.6,0.3c0.4,0 0.5,0.1 0.4,0.3Z" style="fill:#fff;fill-rule:nonzero;"/><path d="M26.3,27.1c-0.8,0 -1.5,-0.1 -2.2,-0.2c-0.7,-0.1 -1.4,-0.3 -2,-0.5c-0.2,-0.1 -0.3,-0.1 -0.5,-0.2c-0.2,-0.1 -0.2,-0.2 -0.2,-0.4c0.1,-0.4 0.2,-0.8 0.3,-1.2c0,-0.2 0.1,-0.3 0.2,-0.4c0.1,-0.2 0.1,-0.2 0.3,-0.2c0.3,0.1 0.7,0.1 1,0.2c0.9,0.2 1.8,0.4 2.8,0.6c0.2,0 0.4,0.1 0.6,0.2c0.3,0.1 0.4,0.3 0.4,0.6c0,0.4 0.1,0.8 0.1,1.2c0,0.3 -0.1,0.4 -0.4,0.4c-0.1,-0.1 -0.3,-0.1 -0.4,-0.1Z" style="fill:#fff;fill-rule:nonzero;"/><path d="M29.2,33.5c-0.5,0 -1.1,-0.1 -1.6,-0.1c-0.2,0 -0.3,-0.1 -0.4,-0.4c0,-0.2 -0.1,-0.4 -0.1,-0.6c0,-0.7 0,-1.4 0.1,-2.1c0,-0.1 0,-0.2 0.1,-0.3c0.1,-0.1 0.1,-0.2 0.3,-0.1c0.8,0.2 1.6,0.3 2.4,0.4c0.3,0 0.5,0 0.8,0.1l0.1,0c0.3,0.1 0.4,0.2 0.4,0.5c0,0.2 0,0.4 -0.1,0.6c-0.1,0.5 -0.2,1 -0.3,1.5c-0.1,0.4 -0.2,0.5 -0.6,0.5c-0.3,0 -0.6,0 -0.9,0c-0.1,0 -0.1,-0.1 -0.2,0l0,0Z" style="fill:#fff;fill-rule:nonzero;"/><path d="M13.1,23.4c-0.1,0 -0.1,0 -0.2,-0.1c-1.1,-0.5 -2.1,-1 -3.1,-1.5c-1,-0.5 -1.4,-1.4 -1.6,-2.4c0,-0.1 0,-0.2 0,-0.3c0,-0.2 0.2,-0.3 0.3,-0.2c0.1,0 0.3,0.1 0.4,0.1c0.4,0.1 0.7,0.3 1.1,0.5c0.8,0.4 1.5,0.8 2.3,1.2c0.1,0 0.2,0.1 0.3,0.2c0.4,0.2 0.6,0.6 0.6,1c0,0.4 0,0.8 0,1.3c0,-0.1 0,0.1 -0.1,0.2Z" style="fill:#fff;fill-rule:nonzero;"/><path d="M34.3,27.1l-1,0c-0.2,0 -0.3,-0.1 -0.3,-0.3c-0.1,-0.3 -0.1,-0.7 -0.1,-1c0,-0.1 0.1,-0.2 0.2,-0.3c0.1,0 0.2,-0.1 0.3,-0.1c0.8,-0.2 1.6,-0.3 2.5,-0.4c0.1,0 0.2,0 0.3,0c0.2,0 0.4,0.1 0.5,0.3c0,0.1 0.1,0.2 0.1,0.4c0.1,0.2 0.1,0.4 0.2,0.6c0.1,0.3 0,0.4 -0.3,0.5c-0.3,0.1 -0.5,0.1 -0.8,0.2c-0.5,0 -1.1,0 -1.6,0.1l0,0Z" style="fill:#fff;fill-rule:nonzero;"/><path d="M30.2,27.1c-0.4,0 -0.8,0 -1.3,0c-0.1,0 -0.2,0 -0.2,0c-0.3,-0.1 -0.4,-0.2 -0.4,-0.4c0,-0.4 0,-0.8 0,-1.1c0,-0.3 0.2,-0.4 0.4,-0.4c0.3,0 0.6,0 0.8,0c0.6,0.1 1.2,0.1 1.8,0.2l0.1,0c0.1,0 0.2,0.1 0.3,0.2c0.1,0.3 0.1,0.7 0.2,1l0,0.1c0,0.3 0,0.4 -0.3,0.4l-1.4,0l0,0Z" style="fill:#fff;fill-rule:nonzero;"/><path d="M33,33.5c-0.2,0 -0.4,0 -0.5,0c-0.2,0 -0.3,-0.1 -0.3,-0.3c0,-0.2 0,-0.3 0.1,-0.5c0.1,-0.5 0.2,-0.9 0.3,-1.4c0,-0.1 0,-0.1 0.1,-0.2c0.1,-0.3 0.3,-0.4 0.5,-0.4c0.3,0 0.6,0 0.9,0c0.3,0 0.6,0 0.9,0.1c0.4,0 0.4,0.2 0.3,0.5c-0.2,0.6 -0.5,1.3 -0.9,1.8c-0.1,0.2 -0.3,0.3 -0.5,0.4c-0.5,-0.1 -0.7,-0.1 -0.9,0Z" style="fill:#fff;fill-rule:nonzero;"/><path d="M10.1,23.5c0.1,0 0.1,0 0.2,0.1c0.7,0.3 1.4,0.6 2,0.9c0.1,0.1 0.2,0.1 0.3,0.2c0.3,0.2 0.5,0.5 0.6,0.9c0.1,0.3 0.1,0.6 0.1,0.9c0,0.1 0,0.2 -0.1,0.4c0,0.1 -0.1,0.2 -0.3,0.2c-0.1,0 -0.2,0 -0.2,0c-0.1,-0.1 -0.2,-0.2 -0.3,-0.3c-0.7,-0.7 -1.2,-1.5 -1.8,-2.4c-0.2,-0.2 -0.3,-0.5 -0.5,-0.7c0.1,-0.1 0,-0.1 0,-0.2l0,0Z" style="fill:#fff;fill-rule:nonzero;"/><path d="M39.9,24.9c0,0.4 0,0.8 -0.2,1.1c-0.1,0.4 -0.3,0.6 -0.7,0.7c-0.2,0 -0.4,0.1 -0.6,0.1c-0.1,0 -0.2,0 -0.2,-0.1c0,-0.2 -0.1,-0.3 -0.1,-0.5c0,-0.4 -0.1,-0.7 -0.2,-1.1c-0.1,-0.4 -0.1,-0.5 0.3,-0.7c0.4,-0.2 0.7,-0.4 1.1,-0.5c0.2,-0.1 0.3,0 0.4,0.2c0.2,0.2 0.2,0.5 0.2,0.8Z" style="fill:#fff;fill-rule:nonzero;"/><path d="M38.2,30.3c0,0.1 0,0.2 -0.1,0.3c-0.1,0.3 -0.3,0.6 -0.4,0.8c-0.1,0.3 -0.2,0.6 -0.3,0.9c0,0.1 0,0.2 0,0.3c0,0.1 0,0.2 -0.1,0.2c-0.1,0.1 -0.3,0.2 -0.4,0.2c-0.3,0.1 -0.6,0.1 -0.9,0.1c-0.2,0 -0.3,-0.1 -0.2,-0.3c0.2,-0.5 0.3,-1 0.5,-1.4c0.1,-0.2 0.2,-0.5 0.4,-0.7c0.1,-0.1 0.2,-0.2 0.3,-0.2c0.3,-0.1 0.6,-0.1 1,-0.2c0,0 0.1,0 0.2,0Z" style="fill:#fff;fill-rule:nonzero;"/><path d="M40.6,31.7c0.1,0 0.2,0 0.2,0c0.1,0 0.1,0.1 0,0.1c0,0.1 -0.1,0.1 -0.2,0.2c-0.2,0.1 -0.3,0.2 -0.5,0.3c-0.4,0.1 -0.8,0.2 -1.2,0.3c-0.1,0 -0.2,0 -0.3,0c-0.1,-0.1 0,-0.2 0,-0.3c0.3,-0.7 0.6,-1.3 1,-1.9c0.1,-0.1 0.2,-0.3 0.3,-0.4c0,-0.1 0.1,-0.1 0.2,-0.1c0.2,-0.1 0.2,0 0.2,0.2c0,0.1 0,0.2 -0.1,0.3c-0.1,0.3 -0.1,0.5 -0.2,0.8c0,0.1 0,0.2 0,0.3c0,0.2 0.1,0.3 0.3,0.3c0.2,-0.1 0.2,-0.1 0.3,-0.1l0,0Z" style="fill:#fff;fill-rule:nonzero;"/><path d="M41,22.7c0.1,0.1 0.1,0.1 0.2,0.2c0.1,0.1 0.2,0.3 0.2,0.4c0.2,0.5 0.4,1 0.5,1.5l0,0.1c0.1,0.3 0,0.5 -0.3,0.7c-0.1,0 -0.1,0.1 -0.2,0.2c-0.2,0.1 -0.3,0.1 -0.4,-0.1c0,-0.1 -0.1,-0.3 -0.1,-0.4c-0.1,-0.7 -0.2,-1.4 -0.1,-2.1c0.1,-0.2 0.1,-0.3 0.2,-0.5Z" style="fill:#fff;fill-rule:nonzero;"/><path d="M42.5,28.9c0,0.1 0,0.2 0,0.2c-0.1,0.2 -0.1,0.4 -0.2,0.6c-0.2,0.5 -0.4,1 -0.6,1.5c0,0.1 -0.1,0.2 -0.2,0.2c-0.1,0 -0.1,-0.1 -0.1,-0.2c0,-0.1 0,-0.2 0.1,-0.3c0.2,-0.7 0.5,-1.3 0.9,-1.9c-0.1,0.1 -0.1,0 0.1,-0.1c-0.1,0.1 -0.1,0.1 0,0Z" style="fill:#fff;fill-rule:nonzero;"/><path d="M42.5,22.5c-0.2,-0.1 -0.3,-0.2 -0.4,-0.6c0,-0.1 -0.1,-0.2 0,-0.4c0.2,0.2 0.5,0.7 0.4,1Z" style="fill:#fff;fill-rule:nonzero;"/><path d="M37.6,12.9c-0.5,0.1 -1,0.1 -1.6,0c0.3,-0.1 1.3,-0.1 1.6,0Z" style="fill:#fff;fill-rule:nonzero;"/><path d="M23.8,14.2c-0.2,-0.1 -0.4,-0.1 -0.5,-0.2c-0.4,-0.2 -0.8,-0.4 -1.3,-0.6c-0.4,-0.2 -0.7,-0.3 -1.1,-0.4c-0.1,0 -0.3,0 -0.4,-0.1c-0.1,0 -0.1,0 -0.2,0c-0.1,0 -0.2,-0.1 -0.2,-0.2c0,-0.1 0,-0.1 0.1,-0.2c0,-0.2 0.1,-0.5 0.1,-0.7c0,-0.2 0.1,-0.2 0.3,-0.2c0.1,0 0.2,0 0.2,0c1.2,0.3 2.3,0.8 3.2,1.6c0.1,0.1 0.2,0.2 0.2,0.3c0.1,0.2 0.1,0.3 0,0.5c0,0.1 -0.2,0.2 -0.4,0.2Z" style="fill:#fff;fill-rule:nonzero;"/><path d="M14.2,13.3c0.3,-0.6 0.8,-0.8 1.3,-0.8l0.1,0c0,0 0.1,0 0.1,0.1c0,0 0,0.1 -0.1,0.1c0,0 -0.1,0.1 -0.2,0.1c-0.3,0.3 -0.7,0.4 -1.2,0.5Z" style="fill:#fff;fill-rule:nonzero;"/></g><path d="M74.8,42.7l-5.9,0l0,18.3l-16.5,0l0,-59.6l25.8,0c12.8,0 22.1,8.6 22.1,21.1c0,7.3 -3.6,13.3 -9.5,16.8l11.9,21.7l-18.3,0l-9.6,-18.3Zm-6,-13.8l7.5,0c4.6,0 7.2,-2.8 7.2,-6.5c0,-3.7 -2.6,-6.4 -7.2,-6.4l-7.5,0l0,12.9Z" style="fill:#fff;fill-rule:nonzero;"/><path d="M163.1,1.4l0,59.6l-13.6,0l-23.7,-32.3l0,32.3l-15.9,0l0,-59.6l14.4,0l22.9,31.2l0,-31.2l15.9,0Z" style="fill:#fff;fill-rule:nonzero;"/><path d="M208.1,61l-17.1,-26.4l0,26.4l-16.4,0l0,-59.6l16.4,0l0,25.1l15.7,-25.1l19,0l-19.1,28.8l20.9,30.8l-19.4,0Z" style="fill:#fff;fill-rule:nonzero;"/><path d="M227.2,41.7l16.9,0c0,4.3 3.3,6.3 7,6.3c3.4,0 6.7,-1.8 6.7,-5.1c0,-3.7 -4.6,-4.8 -10.3,-6.2c-8.5,-2.1 -19.5,-4.7 -19.5,-18.3c0,-11.7 8.6,-18.4 22.7,-18.4c14.3,0 22.5,7.3 22.5,19.4l-16.5,0c0,-3.8 -2.8,-5.5 -6.2,-5.5c-2.9,0 -5.7,1.3 -5.7,4c0,3.4 4.5,4.5 10.1,5.9c8.8,2.3 20.2,5.2 20.2,18.8c0,13 -10,19.8 -23.8,19.8c-14.6,0 -24.1,-7.7 -24.1,-20.7Z" style="fill:#fff;fill-rule:nonzero;"/><path d="M327.1,16.2l-16.2,0l0,44.8l-16.5,0l0,-44.8l-16.2,0l0,-14.8l48.8,0l0,14.8l0.1,0Z" style="fill:#fff;fill-rule:nonzero;"/><path d="M356.8,42.7l-5.9,0l0,18.3l-16.4,0l0,-59.6l25.8,0c12.8,0 22.1,8.6 22.1,21.1c0,7.3 -3.6,13.3 -9.5,16.8l11.9,21.7l-18.3,0l-9.7,-18.3Zm-6,-13.8l7.5,0c4.6,0 7.2,-2.8 7.2,-6.5c0,-3.7 -2.6,-6.4 -7.2,-6.4l-7.5,0l0,12.9Z" style="fill:#fff;fill-rule:nonzero;"/></g></svg>